<svg width="81" height="96" viewBox="0 0 81 96" fill="none" xmlns="http://www.w3.org/2000/svg">
<path fill-rule="evenodd" clip-rule="evenodd" d="M11.0129 66.818C10.9966 66.8344 10.9966 66.8609 11.0129 66.8773L13.8117 69.6761L38.0788 93.9432L39.493 95.3574C40.2741 96.1384 41.5404 96.1384 42.3215 95.3574L43.7357 93.9432L68.0028 69.6761L70.8016 66.8773C70.818 66.8609 70.818 66.8344 70.8016 66.818C70.7859 66.8023 70.7852 66.7771 70.7999 66.7605C77.0874 59.6943 80.9072 50.3838 80.9072 40.1812C80.9072 18.0898 62.9986 0.181152 40.9072 0.181152C18.8158 0.181152 0.907227 18.0898 0.907227 40.1812C0.907227 50.3838 4.72705 59.6943 11.0146 66.7606C11.0293 66.7771 11.0286 66.8023 11.0129 66.818ZM14.897 65.1045L39.493 89.7005C40.2741 90.4816 41.5404 90.4816 42.3215 89.7005L66.9169 65.1051L67.7879 64.1281C73.4631 57.7627 76.9072 49.3789 76.9072 40.1812C76.9072 20.2989 60.7895 4.18115 40.9072 4.18115C21.025 4.18115 4.90723 20.2989 4.90723 40.1812C4.90723 49.379 8.35138 57.7627 14.0266 64.1282L14.897 65.1045ZM40.9072 52.3919C34.9457 52.3919 30.113 47.5592 30.113 41.5977C30.113 35.6363 34.9457 30.8035 40.9072 30.8035C46.8686 30.8035 51.7013 35.6363 51.7013 41.5977C51.7013 47.5592 46.8686 52.3919 40.9072 52.3919ZM25.8193 41.5977C25.8193 33.2649 32.5744 26.5099 40.9072 26.5099C49.2399 26.5099 55.995 33.2649 55.995 41.5977C55.995 49.9305 49.2399 56.6855 40.9072 56.6855C32.5744 56.6855 25.8193 49.9305 25.8193 41.5977Z" fill="#79BDA5"/>
</svg>
