<svg width="92" height="78" viewBox="0 0 92 78" fill="none" xmlns="http://www.w3.org/2000/svg">
<path d="M45.8963 19.1895C47.3246 19.1895 48.4824 18.0299 48.4824 16.5995C48.4824 15.1692 47.3246 14.0097 45.8963 14.0097C44.468 14.0097 43.3102 15.1692 43.3102 16.5995C43.3102 18.0299 44.468 19.1895 45.8963 19.1895Z" fill="#8DA9DC"/>
<path d="M45.8962 22.9949C47.136 22.9949 48.1411 24 48.1411 25.2398V43.5943C48.1411 44.8341 47.136 45.8391 45.8962 45.8391C44.6565 45.8391 43.6514 44.8341 43.6514 43.5943V25.2398C43.6514 24 44.6565 22.9949 45.8962 22.9949Z" fill="#8DA9DC"/>
<path fill-rule="evenodd" clip-rule="evenodd" d="M5.09074 1.27588C2.82029 1.27588 1 3.11536 1 5.3738V55.5855C1 57.8432 2.81963 59.6838 5.09074 59.6838H14.1134V75.0311C14.1134 75.8117 14.519 76.5363 15.1844 76.9445C15.8499 77.3528 16.6796 77.3859 17.3755 77.0321L51.4998 59.6838H86.7017C88.9726 59.6838 90.7925 57.8434 90.7925 55.5855V5.3738C90.7925 3.11522 88.9719 1.27588 86.7017 1.27588H5.09074ZM5.48962 55.1942V5.7655H86.3029V55.1942H50.9619C50.6083 55.1942 50.2598 55.2777 49.9446 55.4379L18.603 71.3716V57.439C18.603 56.1992 17.598 55.1942 16.3582 55.1942H5.48962Z" fill="#8DA9DC"/>
<path d="M45.8963 19.1895C47.3246 19.1895 48.4824 18.0299 48.4824 16.5995C48.4824 15.1692 47.3246 14.0097 45.8963 14.0097C44.468 14.0097 43.3102 15.1692 43.3102 16.5995C43.3102 18.0299 44.468 19.1895 45.8963 19.1895Z" stroke="#8DA9DC" stroke-miterlimit="6.2" stroke-linecap="round" stroke-linejoin="round"/>
<path d="M45.8962 22.9949C47.136 22.9949 48.1411 24 48.1411 25.2398V43.5943C48.1411 44.8341 47.136 45.8391 45.8962 45.8391C44.6565 45.8391 43.6514 44.8341 43.6514 43.5943V25.2398C43.6514 24 44.6565 22.9949 45.8962 22.9949Z" stroke="#8DA9DC" stroke-miterlimit="6.2" stroke-linecap="round" stroke-linejoin="round"/>
<path fill-rule="evenodd" clip-rule="evenodd" d="M5.09074 1.27588C2.82029 1.27588 1 3.11536 1 5.3738V55.5855C1 57.8432 2.81963 59.6838 5.09074 59.6838H14.1134V75.0311C14.1134 75.8117 14.519 76.5363 15.1844 76.9445C15.8499 77.3528 16.6796 77.3859 17.3755 77.0321L51.4998 59.6838H86.7017C88.9726 59.6838 90.7925 57.8434 90.7925 55.5855V5.3738C90.7925 3.11522 88.9719 1.27588 86.7017 1.27588H5.09074ZM5.48962 55.1942V5.7655H86.3029V55.1942H50.9619C50.6083 55.1942 50.2598 55.2777 49.9446 55.4379L18.603 71.3716V57.439C18.603 56.1992 17.598 55.1942 16.3582 55.1942H5.48962Z" stroke="#8DA9DC" stroke-miterlimit="6.2" stroke-linecap="round" stroke-linejoin="round"/>
</svg>
