<svg width="90" height="81" viewBox="0 0 90 81" fill="none" xmlns="http://www.w3.org/2000/svg">
<path d="M27.5613 57.8547L22.8843 57.1332L21.6704 44.1465C21.3134 38.3746 16.4222 33.9735 10.7098 34.3343C4.99741 34.695 0.641719 39.6372 0.998743 45.4812L2.28403 59.0812C2.53394 63.1937 5.14022 66.765 8.92467 68.208C9.92433 68.713 11.0311 68.9295 12.1736 68.8934L21.9917 69.3624C22.9914 69.3984 23.8125 68.6409 23.8482 67.6669C23.884 66.6929 23.1342 65.8271 22.1702 65.791L12.245 65.3221C12.1736 65.3221 12.1379 65.3221 12.0665 65.3221C11.4952 65.3581 10.9597 65.2499 10.4599 64.9974C10.3885 64.9613 10.3171 64.9252 10.2457 64.9252C7.71078 63.9873 5.96137 61.6064 5.78286 58.8287L4.53328 45.1926C4.31906 41.4048 7.17525 38.1581 10.924 37.9056C14.7084 37.6892 17.886 40.5751 18.1359 44.399L19.4212 57.999C19.4212 58.2154 19.4212 58.3958 19.4212 58.6122C19.3855 59.5141 20.0281 60.2717 20.9207 60.416L27.0258 61.39C27.7755 61.4982 28.311 62.1475 28.311 62.9051V77.948C28.311 78.9221 29.0965 79.7518 30.0962 79.7518C31.0601 79.7518 31.8813 78.9581 31.8813 77.948V62.9051C31.8099 60.3799 30.0248 58.2515 27.5613 57.8547Z" fill="#7AC1A9"/>
<path fill-rule="evenodd" clip-rule="evenodd" d="M27.7169 56.8889C30.6689 57.3644 32.7752 59.9081 32.8591 62.8774L32.8595 62.8912V77.948C32.8595 79.5016 31.5972 80.73 30.0962 80.73C28.5341 80.73 27.3328 79.4399 27.3328 77.948V62.9051C27.3328 62.6089 27.1302 62.3934 26.886 62.3582L26.8788 62.3571L20.7645 61.3817C19.4096 61.1626 18.3979 60.0006 18.4429 58.5949V58.0454L17.1606 44.4769L17.1597 44.4628C16.9437 41.1579 14.2123 38.7001 10.9848 38.882C7.78446 39.1002 5.33405 41.8716 5.50907 45.121L6.75825 58.7527L6.7591 58.7659C6.91152 61.1376 8.38329 63.1526 10.4972 63.9744C10.7097 64.0195 10.8672 64.1058 10.8966 64.1218C10.8988 64.123 10.9003 64.1239 10.901 64.1242C11.2418 64.2964 11.6033 64.3711 12.0048 64.3457L12.0356 64.3438H12.2681L22.2123 64.8137C23.756 64.8745 24.8797 66.2348 24.8259 67.7027C24.7699 69.23 23.4821 70.3951 21.9564 70.34L21.9451 70.3396L12.1645 69.8723C10.9083 69.9063 9.66706 69.6686 8.5295 69.1042C4.41045 67.5125 1.58642 63.6229 1.3086 59.1573L0.0232931 45.5571L0.0223025 45.5409C-0.367064 39.1674 4.3883 33.7533 10.6481 33.3579C16.9096 32.9625 22.2484 37.7812 22.6458 44.0704L23.7873 56.2827L27.7169 56.8889ZM21.6704 44.1465L22.8843 57.1332L27.5613 57.8547C30.0248 58.2515 31.8099 60.3799 31.8813 62.9051V77.948C31.8813 78.9581 31.0601 79.7518 30.0962 79.7518C29.0965 79.7518 28.311 78.9221 28.311 77.948V62.9051C28.311 62.1475 27.7755 61.4982 27.0258 61.39L20.9207 60.416C20.0281 60.2717 19.3855 59.5141 19.4212 58.6122V57.999L18.1359 44.399C17.886 40.5751 14.7084 37.6892 10.924 37.9056C7.17525 38.1581 4.31906 41.4048 4.53328 45.1926L5.78286 58.8287C5.96137 61.6064 7.71078 63.9873 10.2457 64.9252C10.3171 64.9252 10.3885 64.9613 10.4599 64.9974C10.9597 65.2499 11.4952 65.3581 12.0665 65.3221H12.245L22.1702 65.791C23.1342 65.8271 23.884 66.6929 23.8482 67.6669C23.8125 68.6409 22.9914 69.3984 21.9917 69.3624L12.1736 68.8934C11.0311 68.9295 9.92433 68.713 8.92467 68.208C5.14022 66.765 2.53394 63.1937 2.28403 59.0812L0.998743 45.4812C0.641719 39.6372 4.99741 34.695 10.7098 34.3343C16.4222 33.9735 21.3134 38.3746 21.6704 44.1465Z" fill="#7AC1A9"/>
<path d="M11.9593 30.2218C17.0647 30.2218 21.2419 26.0011 21.2419 20.8425C21.2419 15.6839 17.0647 11.4632 11.9593 11.4632C6.85387 11.4632 2.67669 15.6839 2.67669 20.8425C2.67669 26.0011 6.85387 30.2218 11.9593 30.2218ZM11.9593 15.0345C15.1368 15.0345 17.7074 17.6319 17.7074 20.8425C17.7074 24.0531 15.1368 26.6505 11.9593 26.6505C8.78179 26.6505 6.21122 24.0531 6.21122 20.8425C6.21122 17.6319 8.8175 15.0345 11.9593 15.0345Z" fill="#7AC1A9"/>
<path fill-rule="evenodd" clip-rule="evenodd" d="M22.2202 20.8425C22.2202 26.5318 17.6146 31.2001 11.9593 31.2001C6.30405 31.2001 1.69843 26.5318 1.69843 20.8425C1.69843 15.1532 6.30405 10.4849 11.9593 10.4849C17.6146 10.4849 22.2202 15.1532 22.2202 20.8425ZM16.7291 20.8425C16.7291 18.1626 14.587 16.0128 11.9593 16.0128C9.36337 16.0128 7.18948 18.1665 7.18948 20.8425C7.18948 23.5224 9.3316 25.6722 11.9593 25.6722C14.587 25.6722 16.7291 23.5224 16.7291 20.8425ZM21.2419 20.8425C21.2419 26.0011 17.0647 30.2218 11.9593 30.2218C6.85387 30.2218 2.67669 26.0011 2.67669 20.8425C2.67669 15.6839 6.85387 11.4632 11.9593 11.4632C17.0647 11.4632 21.2419 15.6839 21.2419 20.8425ZM17.7074 20.8425C17.7074 17.6319 15.1368 15.0345 11.9593 15.0345C8.8175 15.0345 6.21122 17.6319 6.21122 20.8425C6.21122 24.0531 8.78179 26.6505 11.9593 26.6505C15.1368 26.6505 17.7074 24.0531 17.7074 20.8425Z" fill="#7AC1A9"/>
<path d="M79.2583 34.3343C73.5816 33.9735 68.6547 38.3746 68.2977 44.0743L67.0838 57.1332L62.4068 57.8547C59.9433 58.2515 58.1225 60.3799 58.1225 62.9051V77.948C58.1225 78.9221 58.908 79.7518 59.9076 79.7518C60.9073 79.7518 61.6927 78.9581 61.6927 77.948V62.9051C61.6927 62.1475 62.2283 61.5343 62.978 61.39L69.0831 60.416C69.9757 60.2717 70.6183 59.5141 70.5826 58.6122C70.5826 58.3958 70.5826 58.2154 70.5826 58.0711L71.8679 44.3629C72.0821 40.5751 75.2953 37.6892 79.0798 37.9056C82.8285 38.1221 85.6847 41.4048 85.4705 45.1205L84.1852 58.8287C84.0067 61.5343 82.293 63.9152 79.7581 64.8531C79.6867 64.8892 79.6153 64.9252 79.5439 64.9252C79.0441 65.1777 78.5086 65.286 77.9373 65.2499C77.8659 65.2499 77.7945 65.2499 77.7588 65.2499L67.8335 65.7189C66.8696 65.7549 66.0841 66.6207 66.1555 67.5947C66.1912 68.5687 67.0124 69.3624 68.0121 69.2902L77.8302 68.8213C78.937 68.8573 80.0795 68.6409 81.0791 68.1358C84.8636 66.6568 87.4698 63.0854 87.7198 59.0451L89.005 45.3369C89.3264 39.6372 84.9707 34.6589 79.2583 34.3343Z" fill="#7AC1A9"/>
<path fill-rule="evenodd" clip-rule="evenodd" d="M69.0831 60.416L62.978 61.39C62.2283 61.5343 61.6927 62.1475 61.6927 62.9051V77.948C61.6927 78.9581 60.9073 79.7518 59.9076 79.7518C58.908 79.7518 58.1225 78.9221 58.1225 77.948V62.9051C58.1225 60.3799 59.9433 58.2515 62.4068 57.8547L67.0838 57.1332L68.2977 44.0743C68.6547 38.3746 73.5816 33.9735 79.2583 34.3343C84.9707 34.6589 89.3264 39.6372 89.005 45.3369L87.7198 59.0451C87.4698 63.0854 84.8636 66.6568 81.0791 68.1358C80.0795 68.6409 78.937 68.8573 77.8302 68.8213L68.0121 69.2902C67.0124 69.3624 66.1912 68.5687 66.1555 67.5947C66.0841 66.6207 66.8696 65.7549 67.8335 65.7189L77.7588 65.2499H77.9373C78.5086 65.286 79.0441 65.1777 79.5439 64.9252C79.6153 64.9252 79.6867 64.8892 79.7581 64.8531C82.293 63.9152 84.0067 61.5343 84.1852 58.8287L85.4705 45.1205C85.6847 41.4048 82.8285 38.1221 79.0798 37.9056C75.2953 37.6892 72.0821 40.5751 71.8679 44.3629L70.5826 58.0711V58.6122C70.6183 59.5141 69.9757 60.2717 69.0831 60.416ZM71.5609 58.5949C71.6059 60.0006 70.5942 61.1626 69.2392 61.3817L69.2372 61.382L63.1506 62.3531C62.8401 62.4179 62.671 62.6489 62.671 62.9051V77.948C62.671 79.4888 61.4571 80.73 59.9076 80.73C58.3455 80.73 57.1442 79.4399 57.1442 77.948V62.9051C57.1442 59.901 59.3123 57.3623 62.2512 56.8889L62.2576 56.8878L66.1804 56.2827L67.3223 43.9981C67.7202 37.7763 73.0982 32.9644 79.3171 33.3578C85.5777 33.7154 90.3328 39.1648 89.9818 45.392L89.9807 45.4101L88.6952 59.1213C88.4168 63.5212 85.588 67.4048 81.4779 69.0302C80.3375 69.5965 79.0613 69.834 77.8389 69.8002L68.0695 70.2669C66.4966 70.373 65.2426 69.1301 65.1786 67.6484C65.0773 66.1276 66.286 64.8008 67.7917 64.7415L77.7357 64.2716H77.9682L77.999 64.2736C78.4004 64.2989 78.7619 64.2243 79.1028 64.0521L79.3108 63.947H79.388L79.4187 63.9356C81.5769 63.137 83.0549 61.1007 83.2091 58.7643L83.21 58.7508L84.4948 45.0473C84.6689 41.8676 82.2168 39.0666 79.0234 38.8822C75.7828 38.6972 73.0285 41.1662 72.8446 44.4181L72.8436 44.4362L71.5609 58.1169V58.5949Z" fill="#7AC1A9"/>
<path d="M78.0087 30.2218C83.1141 30.2218 87.2913 26.0011 87.2913 20.8425C87.2913 15.6839 83.1141 11.4632 78.0087 11.4632C72.9032 11.4632 68.726 15.6839 68.726 20.8425C68.726 26.0011 72.8675 30.2218 78.0087 30.2218ZM78.0087 15.0345C81.1862 15.0345 83.7567 17.6319 83.7567 20.8425C83.7567 24.0531 81.1862 26.6505 78.0087 26.6505C74.8311 26.6505 72.2606 24.0531 72.2606 20.8425C72.2606 17.6319 74.8311 15.0345 78.0087 15.0345Z" fill="#7AC1A9"/>
<path fill-rule="evenodd" clip-rule="evenodd" d="M88.2695 20.8425C88.2695 26.5318 83.6639 31.2001 78.0087 31.2001C72.3153 31.2001 67.7478 26.5293 67.7478 20.8425C67.7478 15.1532 72.3534 10.4849 78.0087 10.4849C83.6639 10.4849 88.2695 15.1532 88.2695 20.8425ZM82.7785 20.8425C82.7785 18.1626 80.6364 16.0128 78.0087 16.0128C75.381 16.0128 73.2388 18.1626 73.2388 20.8425C73.2388 23.5224 75.381 25.6722 78.0087 25.6722C80.6364 25.6722 82.7785 23.5224 82.7785 20.8425ZM87.2913 20.8425C87.2913 26.0011 83.1141 30.2218 78.0087 30.2218C72.8675 30.2218 68.726 26.0011 68.726 20.8425C68.726 15.6839 72.9032 11.4632 78.0087 11.4632C83.1141 11.4632 87.2913 15.6839 87.2913 20.8425ZM83.7567 20.8425C83.7567 17.6319 81.1862 15.0345 78.0087 15.0345C74.8311 15.0345 72.2606 17.6319 72.2606 20.8425C72.2606 24.0531 74.8311 26.6505 78.0087 26.6505C81.1862 26.6505 83.7567 24.0531 83.7567 20.8425Z" fill="#7AC1A9"/>
<path d="M63.2995 25.7846V3.16607C63.2995 2.11992 62.4426 1.25414 61.4073 1.25414H28.5611C27.5257 1.25414 26.6689 2.11992 26.6689 3.16607V25.7846C26.6689 26.8308 27.5257 27.6966 28.5611 27.6966H37.7366L43.7346 33.757C44.0916 34.1178 44.52 34.2982 44.9842 34.2982C45.4483 34.2982 45.8767 34.1178 46.2338 33.757L52.2318 27.6966H61.4073C62.4783 27.6966 63.2995 26.8308 63.2995 25.7846ZM59.7649 24.1252H51.482C51.0179 24.1252 50.5537 24.3056 50.2324 24.6663L44.9842 29.9693L39.7359 24.6303C39.4146 24.3056 38.9505 24.0891 38.4863 24.0891H30.2034V4.86157H59.7649V24.1252Z" fill="#7AC1A9"/>
<path fill-rule="evenodd" clip-rule="evenodd" d="M39.7359 24.6303L44.9842 29.9693L50.2324 24.6663C50.5537 24.3056 51.0179 24.1252 51.482 24.1252H59.7649V4.86157H30.2034V24.0891H38.4863C38.9505 24.0891 39.4146 24.3056 39.7359 24.6303ZM31.1817 23.1109H38.4863C39.2405 23.1109 39.9475 23.4534 40.4312 23.9421L40.4336 23.9445L44.9865 28.5762L49.5212 23.9943C50.0482 23.4159 50.7812 23.147 51.482 23.147H58.7867V5.83983H31.1817V23.1109ZM64.2777 3.16607V25.7846C64.2777 27.3493 63.0401 28.6748 61.4073 28.6748H52.6399L46.9291 34.4452C46.3992 34.9806 45.7245 35.2764 44.9842 35.2764C44.2438 35.2764 43.5692 34.9806 43.0393 34.4452L37.3284 28.6748H28.5611C26.9759 28.6748 25.6906 27.3615 25.6906 25.7846V3.16607C25.6906 1.58922 26.9759 0.275879 28.5611 0.275879H61.4073C62.9924 0.275879 64.2777 1.58922 64.2777 3.16607ZM37.7366 27.6966H28.5611C27.5257 27.6966 26.6689 26.8308 26.6689 25.7846V3.16607C26.6689 2.11992 27.5257 1.25414 28.5611 1.25414H61.4073C62.4426 1.25414 63.2995 2.11992 63.2995 3.16607V25.7846C63.2995 26.8308 62.4783 27.6966 61.4073 27.6966H52.2318L46.2338 33.757C45.8767 34.1178 45.4483 34.2982 44.9842 34.2982C44.52 34.2982 44.0916 34.1178 43.7346 33.757L37.7366 27.6966Z" fill="#7AC1A9"/>
</svg>
