<svg width="91" height="77" viewBox="0 0 91 77" fill="none" xmlns="http://www.w3.org/2000/svg">
<path fill-rule="evenodd" clip-rule="evenodd" d="M4.49712 0.275879C2.22666 0.275879 0.406372 2.11536 0.406372 4.3738V54.5855C0.406372 56.8432 2.226 58.6838 4.49712 58.6838H13.5198V74.0311C13.5198 74.8117 13.9253 75.5364 14.5908 75.9446C15.2562 76.3528 16.086 76.3859 16.7819 76.0321L50.9061 58.6838H86.1081C88.379 58.6838 90.1989 56.8434 90.1989 54.5855V4.3738C90.1989 2.11522 88.3783 0.275879 86.1081 0.275879H4.49712ZM4.896 54.1942V4.7655H85.7092V54.1942H50.3683C50.0147 54.1942 49.6661 54.2777 49.351 54.4379L18.0094 70.3716V56.439C18.0094 55.1992 17.0043 54.1942 15.7646 54.1942H4.896Z" fill="#D6BC37"/>
<path d="M30.2856 31.194L39.8208 40.7293C39.938 40.8464 40.128 40.8464 40.2451 40.7293L60.3213 20.6531" stroke="#D6BC37" stroke-width="4" stroke-linecap="round"/>
</svg>
