<svg width="81" height="58" viewBox="0 0 81 58" fill="none" xmlns="http://www.w3.org/2000/svg">
<path fill-rule="evenodd" clip-rule="evenodd" d="M10.2822 0.767578H71.5322C74.0186 0.767578 76.4032 1.7553 78.1614 3.51345C79.9195 5.27161 80.9072 7.65617 80.9072 10.1426V47.6426C80.9072 50.129 79.9195 52.5136 78.1614 54.2717C76.4032 56.0299 74.0186 57.0176 71.5322 57.0176H10.2822C7.79582 57.0176 5.41125 56.0299 3.6531 54.2717C1.89495 52.5136 0.907227 50.129 0.907227 47.6426V10.1426C0.907227 7.65617 1.89495 5.27161 3.6531 3.51345C5.41125 1.7553 7.79582 0.767578 10.2822 0.767578ZM75.5097 51.6201C76.5646 50.5652 77.1572 49.1344 77.1572 47.6426V10.1426C77.1572 8.65074 76.5646 7.22 75.5097 6.1651C74.4548 5.11021 73.0241 4.51758 71.5322 4.51758H10.2822C8.79038 4.51758 7.35964 5.11021 6.30475 6.1651C5.24986 7.22 4.65723 8.65074 4.65723 10.1426V47.6426C4.65723 49.1344 5.24986 50.5652 6.30475 51.6201C7.35964 52.6749 8.79038 53.2676 10.2822 53.2676H71.5322C73.0241 53.2676 74.4548 52.6749 75.5097 51.6201ZM73.32 8.29648C73.5317 8.42251 73.7164 8.58902 73.8637 8.78648C74.1555 9.18379 74.2791 9.68005 74.2078 10.1678C74.1364 10.6556 73.8758 11.0957 73.4824 11.3927L49.7637 29.1115L73.0512 46.5115C73.2486 46.6588 73.415 46.8436 73.541 47.0552C73.667 47.2669 73.7501 47.5013 73.7855 47.745C73.8209 47.9888 73.8079 48.2371 73.7473 48.4759C73.6868 48.7146 73.5798 48.9391 73.4324 49.1365C73.2851 49.3339 73.1003 49.5003 72.8887 49.6263C72.677 49.7523 72.4426 49.8354 72.1989 49.8708C71.9551 49.9062 71.7068 49.8932 71.468 49.8326C71.2293 49.7721 71.0048 49.6651 70.8074 49.5177L46.6324 31.4802L43.2324 34.0177C42.4694 34.5848 41.5424 34.8878 40.5918 34.8811C39.6411 34.8743 38.7186 34.5581 37.9637 33.9802L34.7262 31.4802L10.8324 49.5177C10.6338 49.6659 10.4079 49.7735 10.1677 49.8343C9.92754 49.8952 9.67771 49.9081 9.4325 49.8724C9.1873 49.8367 8.95152 49.7531 8.73864 49.6263C8.52576 49.4995 8.33994 49.332 8.1918 49.1334C8.04365 48.9347 7.93607 48.7089 7.87521 48.4687C7.81435 48.2285 7.8014 47.9786 7.83709 47.7334C7.87279 47.4882 7.95643 47.2525 8.08324 47.0396C8.21005 46.8267 8.37755 46.6409 8.57617 46.4927L31.6324 29.1177L8.31992 11.2865C8.12417 11.1371 7.95976 10.9506 7.83607 10.7377C7.71239 10.5248 7.63185 10.2896 7.59906 10.0456C7.56627 9.80151 7.58186 9.5534 7.64496 9.31538C7.70806 9.07736 7.81742 8.85411 7.9668 8.65835C8.11618 8.4626 8.30265 8.29819 8.51557 8.1745C8.72849 8.05082 8.96368 7.97028 9.20772 7.93749C9.45177 7.9047 9.69988 7.9203 9.9379 7.98339C10.1759 8.04649 10.3992 8.15585 10.5949 8.30523L40.2449 30.9802C40.3531 31.0614 40.4847 31.1052 40.6199 31.1052C40.7552 31.1052 40.8867 31.0614 40.9949 30.9802L71.2387 8.40523C71.436 8.25782 71.6605 8.15075 71.8993 8.09013C72.138 8.02951 72.3864 8.01653 72.6302 8.05194C72.8739 8.08735 73.1084 8.17044 73.32 8.29648Z" fill="#8DA9DC"/>
</svg>
