<svg width="25" height="25" viewBox="0 0 25 25" fill="none" xmlns="http://www.w3.org/2000/svg">
<path d="M21.0701 1.01074H3.07007C2.53964 1.01074 2.03093 1.22146 1.65585 1.59653C1.28078 1.9716 1.07007 2.48031 1.07007 3.01074V21.0107C1.07007 21.5412 1.28078 22.0499 1.65585 22.425C2.03093 22.8 2.53964 23.0107 3.07007 23.0107H21.0701C21.6005 23.0107 22.1092 22.8 22.4843 22.425C22.8594 22.0499 23.0701 21.5412 23.0701 21.0107V3.01074C23.0701 2.48031 22.8594 1.9716 22.4843 1.59653C22.1092 1.22146 21.6005 1.01074 21.0701 1.01074ZM8.07007 19.5107C8.07007 19.6434 8.01739 19.7705 7.92362 19.8643C7.82985 19.9581 7.70268 20.0107 7.57007 20.0107H4.57007C4.43746 20.0107 4.31028 19.9581 4.21652 19.8643C4.12275 19.7705 4.07007 19.6434 4.07007 19.5107V9.51074C4.07007 9.37813 4.12275 9.25096 4.21652 9.15719C4.31028 9.06342 4.43746 9.01074 4.57007 9.01074H7.57007C7.70268 9.01074 7.82985 9.06342 7.92362 9.15719C8.01739 9.25096 8.07007 9.37813 8.07007 9.51074V19.5107ZM6.07007 8.01074C5.67451 8.01074 5.28783 7.89344 4.95893 7.67368C4.63003 7.45392 4.37368 7.14156 4.22231 6.77611C4.07093 6.41066 4.03133 6.00852 4.1085 5.62056C4.18567 5.2326 4.37615 4.87623 4.65585 4.59653C4.93556 4.31682 5.29193 4.12634 5.67989 4.04917C6.06785 3.972 6.46998 4.01161 6.83544 4.16298C7.20089 4.31436 7.51324 4.5707 7.73301 4.8996C7.95277 5.2285 8.07007 5.61518 8.07007 6.01074C8.07007 6.54118 7.85935 7.04988 7.48428 7.42496C7.10921 7.80003 6.6005 8.01074 6.07007 8.01074ZM20.0701 19.5107C20.0701 19.6434 20.0174 19.7705 19.9236 19.8643C19.8299 19.9581 19.7027 20.0107 19.5701 20.0107H16.5701C16.4375 20.0107 16.3103 19.9581 16.2165 19.8643C16.1227 19.7705 16.0701 19.6434 16.0701 19.5107V14.0107C16.0701 12.7607 15.5101 12.0107 14.5701 12.0107C13.6301 12.0107 13.0701 12.7607 13.0701 14.0107V19.5107C13.0701 19.6434 13.0174 19.7705 12.9236 19.8643C12.8299 19.9581 12.7027 20.0107 12.5701 20.0107H9.57007C9.43746 20.0107 9.31028 19.9581 9.21651 19.8643C9.12275 19.7705 9.07007 19.6434 9.07007 19.5107V9.51074C9.07007 9.37813 9.12275 9.25096 9.21651 9.15719C9.31028 9.06342 9.43746 9.01074 9.57007 9.01074H12.5701C12.7027 9.01074 12.8299 9.06342 12.9236 9.15719C13.0174 9.25096 13.0701 9.37813 13.0701 9.51074V9.82074C13.7818 9.26435 14.6673 8.97745 15.5701 9.01074C18.3001 9.01074 20.0701 11.0107 20.0701 14.0107V19.5107Z" fill="white" fill-opacity="0.8"/>
</svg>
