<svg width="81" height="81" viewBox="0 0 81 81" fill="none" xmlns="http://www.w3.org/2000/svg">
<path d="M79.2276 61.5596C77.8831 59.3654 75.7964 56.8099 73.345 54.3618C71.5708 52.5876 65.4799 46.8027 61.5636 46.8027C60.307 46.8027 59.5094 47.3398 59.0634 47.7858L53.8482 52.9978C53.7603 53.0857 53.4804 53.1866 52.9758 53.1866C50.0817 53.1866 43.9452 49.9833 37.8152 43.8565C29.6408 35.6789 27.6745 28.8229 28.6739 27.8235L33.8826 22.6115C34.3319 22.1623 34.869 21.3647 34.869 20.1114C34.8723 16.1918 29.0841 10.1009 27.3099 8.3267C25.539 6.55249 19.4513 0.767578 15.5285 0.767578C14.2752 0.767578 13.4776 1.30147 13.0283 1.75072L2.60116 12.1779C-0.478481 15.2543 0.644645 21.2736 5.94124 30.0665C10.5379 37.6972 17.8138 46.6432 26.4212 55.2505C41.6892 70.5185 57.1492 80.7764 64.8907 80.7732C66.8179 80.7732 68.3642 80.2002 69.4939 79.0706L79.921 68.6434C82.177 66.3874 79.9568 62.7543 79.2276 61.5596ZM65.9584 75.5352C65.8412 75.6491 65.5027 75.7728 64.8907 75.7728C59.6201 75.7728 45.5859 67.3412 29.9566 51.7151C21.6259 43.3845 14.6202 34.7804 10.2254 27.4849C5.27387 19.2682 5.7394 16.1104 6.13656 15.7133L15.9517 5.89814C17.2311 6.39297 20.1968 8.28112 23.7745 11.8621C27.3522 15.4431 29.2436 18.4055 29.7385 19.6849L25.1385 24.2881C20.3433 29.0834 26.5156 39.6245 34.2798 47.3919C40.9404 54.0525 48.1056 58.187 52.9758 58.187C55.2513 58.187 56.6284 57.2884 57.3836 56.5332L61.9868 51.9333C63.2662 52.4281 66.2286 54.3195 69.8096 57.8972C73.3874 61.4749 75.2788 64.4406 75.7736 65.72L65.9584 75.5352Z" fill="#DFD181"/>
</svg>
