<svg width="1265" height="1222" viewBox="0 0 1265 1222" fill="none" xmlns="http://www.w3.org/2000/svg">
<path fill-rule="evenodd" clip-rule="evenodd" d="M529.013 116.217L469.725 207.154C515.773 251.218 620.137 352.878 705.507 471.488C711.739 480.147 717.899 488.934 723.953 497.835C733.169 499.543 742.336 501.355 751.437 503.255C894.714 533.173 1030.21 586.993 1089.31 611.19L1148.64 520.195L529.013 116.217ZM547.749 28.1784C523.879 12.6159 491.913 19.3504 476.35 43.2205L384.75 183.719C371.386 204.216 374.12 231.48 391.864 248.851C394.982 251.903 399.249 255.982 404.505 261.006C442.1 296.942 530.24 381.195 609.417 483.223C570.327 480.803 531.784 481.423 495.22 486.302C413.975 497.144 337.462 529.899 290.249 602.315C201.478 738.474 245.033 933.608 380.164 1021.71C515.295 1109.81 711.416 1070.94 800.187 934.779C847.842 861.685 847.372 778.15 824.579 699.102C814.671 664.743 800.335 630.354 783.112 596.661C909.445 628.092 1022.65 674.601 1068.8 693.56C1074.44 695.876 1079.07 697.781 1082.61 699.197C1105.67 708.425 1131.71 699.927 1145.08 679.43L1236.68 538.932C1252.24 515.062 1245.51 483.095 1221.64 467.533L547.749 28.1784ZM673.832 574.567C614.294 565.652 556.79 562.812 506.328 569.546C439.291 578.492 389.766 603.445 360.599 648.181C297.675 744.695 328.957 888.07 426.03 951.359C523.104 1014.65 666.913 985.427 729.837 888.913C759.642 843.197 762.606 787.295 743.885 722.37C730.076 674.482 705.089 624.244 673.832 574.567Z" fill="#949494"/>
</svg>
